<svg xmlns="http://www.w3.org/2000/svg" xml:space="preserve" style="fill-rule:evenodd;clip-rule:evenodd;stroke-linecap:round;stroke-linejoin:round;stroke-miterlimit:1.5" viewBox="0 0 1522 320"><path d="M0 0h1521.14v319.267H0z" style="fill:none"/><path d="M42.737 281.082v-240" style="fill:none;stroke:#73b6e4;stroke-width:30px"/><path d="m42.737 41.082 120 160 120-160" style="fill:none;stroke:#000;stroke-width:30px"/><path d="M282.737 41.082v240" style="fill:none;stroke:#73b6e4;stroke-width:30px"/><path d="M462.737 281.082c-66.23 0-120-53.771-120-120 0-66.23 53.77-120 120-120" style="fill:none;stroke:#73b6e4;stroke-width:30px"/><path d="M462.737 41.082c66.229 0 120 53.77 120 120 0 66.229-53.771 120-120 120" style="fill:none;stroke:#000;stroke-width:30px"/><path d="M969.872 161.082c0-66.23 53.77-120 120-120 66.23 0 120 53.77 120 120" style="fill:none;stroke:#73b6e4;stroke-width:30px"/><path d="M1209.87 161.082c0 66.229-53.77 120-120 120-66.23 0-120-53.771-120-120" style="fill:none;stroke:#000;stroke-width:30px"/><path d="M742.737 41.082v240" style="fill:none;stroke:#000;stroke-width:30px"/><path d="M642.737 41.082h200" style="fill:none;stroke:#73b6e4;stroke-width:30px"/><path d="M902.737 41.082v240" style="fill:none;stroke:#000;stroke-width:30px"/><path d="M1282.74 281.082v-240" style="fill:none;stroke:#000;stroke-width:30px"/><path d="m1282.74 41.082 200 240" style="fill:none;stroke:#73b6e4;stroke-width:30px"/><path d="M1482.74 281.082v-240" style="fill:none;stroke:#000;stroke-width:30px"/></svg>