<?xml version="1.0" encoding="UTF-8" standalone="no"?><!DOCTYPE svg PUBLIC "-//W3C//DTD SVG 1.1//EN" "http://www.w3.org/Graphics/SVG/1.1/DTD/svg11.dtd"><svg width="100%" height="100%" viewBox="0 0 1522 320" version="1.1" xmlns="http://www.w3.org/2000/svg" xmlns:xlink="http://www.w3.org/1999/xlink" xml:space="preserve" xmlns:serif="http://www.serif.com/" style="fill-rule:evenodd;clip-rule:evenodd;stroke-linecap:round;stroke-linejoin:round;stroke-miterlimit:1.5;"><rect id="Artboard1" x="0" y="0" width="1521.14" height="319.267" style="fill:none;"/><g id="M"><path d="M42.737,281.082l-0,-240" style="fill:none;stroke:#73b6e4;stroke-width:30px;"/><path d="M42.737,41.082l120,160l120,-160" style="fill:none;stroke:#000;stroke-width:30px;"/><path d="M282.737,41.082l-0,240" style="fill:none;stroke:#73b6e4;stroke-width:30px;"/></g><g id="O"><path d="M462.737,281.082c-66.23,-0 -120,-53.771 -120,-120c-0,-66.23 53.77,-120 120,-120" style="fill:none;stroke:#73b6e4;stroke-width:30px;"/><path d="M462.737,41.082c66.229,-0 120,53.77 120,120c-0,66.229 -53.771,120 -120,120" style="fill:none;stroke:#000;stroke-width:30px;"/></g><g id="O1" serif:id="O"><path d="M969.872,161.082c0,-66.23 53.77,-120 120,-120c66.23,-0 120,53.77 120,120" style="fill:none;stroke:#73b6e4;stroke-width:30px;"/><path d="M1209.87,161.082c0,66.229 -53.77,120 -120,120c-66.23,-0 -120,-53.771 -120,-120" style="fill:none;stroke:#000;stroke-width:30px;"/></g><g id="T"><path d="M742.737,41.082l-0,240" style="fill:none;stroke:#000;stroke-width:30px;"/><path d="M642.737,41.082l200,-0" style="fill:none;stroke:#73b6e4;stroke-width:30px;"/></g><path id="I" d="M902.737,41.082l-0,240" style="fill:none;stroke:#000;stroke-width:30px;"/><g id="N"><path d="M1282.74,281.082l-0,-240" style="fill:none;stroke:#000;stroke-width:30px;"/><path d="M1282.74,41.082l200,240" style="fill:none;stroke:#73b6e4;stroke-width:30px;"/><path d="M1482.74,281.082l-0,-240" style="fill:none;stroke:#000;stroke-width:30px;"/></g></svg>